<svg xmlns="http://www.w3.org/2000/svg" viewBox="0 0 111 30"><path fill="#E50914" d="M105.062 14.28L111 30c-1.75-.25-3.499-.563-5.28-.845l-3.345-8.686-3.437 7.969c-1.687-.218-3.344-.468-5.031-.718l6.031-13.75L94.187 0h5.062l3.5 8.187L106.312 0h4.687l-5.937 14.28zM90.47 0h-4.594v27.25c1.5.094 3.062.156 4.594.25V0zm-8.563 26.906c-1.468-.094-2.968-.156-4.5-.25V0h4.5v26.906zm-15.125.938c-1.5.125-3.031.25-4.593.437V0h4.593v27.844zM58.844 0h-4.594v28.531c1.5.125 3.062.25 4.594.438V0zm-24.22 28.75l-6.343-15.03L22.125 28.53c-1.562-.125-3.156-.25-4.719-.344V0h4.594v21.562L28.187 0h4.75l6.344 15.03L45.469 0h4.719v29.75c-1.563-.187-3.156-.375-4.719-.562V7.125L39.375 28.75h-4.75zM9.219 30c-1.594-.125-3.156-.219-4.75-.281V0h4.75V30z"/></svg>
