<svg xmlns="http://www.w3.org/2000/svg" viewBox="0 0 24 24"><path fill="#1DB954" d="M12 0C5.373 0 0 5.373 0 12s5.373 12 12 12 12-5.373 12-12S18.627 0 12 0zm5.501 17.311c-.221.361-.691.472-1.052.251-2.812-1.718-6.351-2.107-10.518-1.157-.411.094-.821-.161-.915-.572-.094-.411.161-.821.572-.915 4.551-1.041 8.461-.592 11.661 1.362.361.22.472.691.252 1.051zm1.469-3.26c-.279.453-.872.599-1.325.321-3.218-1.977-8.125-2.55-11.93-1.396-.511.155-1.042-.134-1.197-.644-.155-.511.134-1.042.644-1.197 4.352-1.321 9.771-.671 13.487 1.598.453.279.599.871.321 1.324zm.126-3.411c-3.856-2.29-10.222-2.503-13.918-1.381-.591.18-1.213-.153-1.393-.744-.18-.591.153-1.213.744-1.393 4.251-1.291 11.285-1.031 15.716 1.599.531.315.705 1.004.39 1.535-.315.531-1.004.705-1.539.39z"/></svg>
